<?xml version="1.0" encoding="utf-8"?>
<!-- Generator: Adobe Illustrator 24.0.0, SVG Export Plug-In . SVG Version: 6.00 Build 0)  -->
<svg version="1.1" id="Capa_1" xmlns="http://www.w3.org/2000/svg" xmlns:xlink="http://www.w3.org/1999/xlink" x="0px" y="0px"
	 viewBox="0 0 500 500" style="enable-background:new 0 0 500 500;" xml:space="preserve">
<style type="text/css">
	.st0{fill:#FFFFFF;}
</style>
<g>
	<path class="st0" d="M256.82,0.51c13.37,3.01,25.28,8.78,35.42,18.18c12.68,11.75,22.51,25.6,29.97,41.05
		c5.35,11.08,9.91,22.54,14.57,33.93c1.15,2.8,2.4,3.54,5.38,3.01c7.82-1.39,15.68-2.67,23.58-3.43c3.53-0.34,4.68-1.62,5-4.94
		c1.59-16.25,9.86-28.19,24.06-35.99c17.25-9.48,38.01-6.6,53.22,7.16c13.41,12.13,18.1,33.39,11.13,50.58
		c-0.83,2.04-2.13,3.69,0,6.07c15.62,17.49,16.92,37.83,11.2,59.37c-6.03,22.7-18.31,42.1-32.45,60.46
		c-3.56,4.63-7.39,9.05-11.42,13.97c2.2,2.74,4.35,5.51,6.59,8.2c13.25,15.92,24.7,32.98,32.56,52.25
		c5.78,14.14,9.41,28.77,7.18,44.15c-3.37,23.21-17.58,37.62-38.74,45.88c-19.81,7.73-40.54,8.56-61.39,7.06
		c-10.17-0.74-20.3-2.38-30.37-4.05c-3.33-0.55-4.56,0.31-5.61,3.27c-6.35,17.75-13.91,34.95-24.36,50.74
		c-7.21,10.9-15.47,20.88-26.01,28.76c-25.08,18.75-52.88,17.6-76.53-3.03c-13.68-11.93-24.02-26.42-31.91-42.58
		c-5.39-11.05-9.93-22.53-14.6-33.92c-1.18-2.89-2.33-3.92-5.64-3.32c-8.29,1.5-16.66,2.62-25.03,3.59c-2.88,0.33-4.1,1.46-4.97,4.2
		c-6.06,18.99-21.9,31.51-41.08,32.76c-19.01,1.24-36.8-9.32-44.98-27.24c-4.29-9.39-5.21-19.32-2.83-29.51
		c0.43-1.84,0.5-4.48-0.5-5.81c-13.55-18-14.11-37.78-8.22-58.39c6.91-24.18,20.42-44.69,36.14-63.93c2.35-2.88,4.72-5.76,7.02-8.56
		C65.46,240,57.53,229.96,50.3,219.44c-9.79-14.26-17.42-29.69-21.45-46.59c-9.08-38.02,9.32-67.32,47.84-76.78
		c24.78-6.08,49.61-4.6,74.44-0.55c10.55,1.72,10.21,1.75,14.47-8.22c5.02-11.76,9.91-23.68,16.16-34.79
		c13.95-24.8,31.64-45.67,61.41-52C247.73,0.51,252.28,0.51,256.82,0.51z M342.77,249.91c-0.81-15.66-1.67-31.39-2.38-47.12
		c-0.15-3.39-1.48-5.5-4.31-7.46c-26.09-18.03-53.5-33.74-82.15-47.33c-2.96-1.41-5.24-1.3-8.16,0.09
		c-28.65,13.59-56,29.4-82.1,47.42c-2.49,1.72-3.77,3.53-4.01,6.61c-2.58,31.96-2.68,63.92,0.2,95.85c0.2,2.17,1.79,4.88,3.58,6.15
		c26.15,18.52,53.84,34.43,82.93,47.84c2.1,0.97,5.44,0.9,7.55-0.09c28.6-13.3,55.84-28.99,81.81-46.92
		c3.17-2.19,4.55-4.53,4.72-8.24C341.13,281.14,341.98,265.58,342.77,249.91z M319.93,399.05c-0.96-0.46-1.38-0.71-1.82-0.86
		c-21.71-7.58-43.4-15.21-65.17-22.61c-2.03-0.69-4.77-0.48-6.83,0.27c-15.55,5.59-30.97,11.55-46.53,17.11
		c-6.32,2.26-12.88,3.82-19.54,5.77c7.64,22.13,17,42.72,31.57,60.54c7.28,8.9,15.85,16.32,27.1,19.87
		c16.68,5.26,30.38-0.88,42.16-12.09C300.49,448.4,310.72,424.22,319.93,399.05z M320.23,100.58c-4.49-10.38-8.69-21.25-13.82-31.67
		c-6.54-13.29-14.43-25.83-25.47-35.95c-13.06-11.97-27.86-18.28-45.34-10.76c-6.12,2.63-11.96,6.7-16.85,11.27
		c-15.63,14.6-24.97,33.35-33.07,52.77c-2.03,4.86-3.72,9.87-5.4,14.37c16.83,5.74,33.1,11.17,49.28,16.86
		c6.87,2.41,13.56,7.48,20.32,7.46c6.94-0.03,13.79-5,20.81-7.45C286.89,111.82,303.16,106.38,320.23,100.58z M343.96,385.35
		c9.93,1.28,19.35,2.86,28.83,3.63c16.72,1.36,33.46,1.4,49.69-3.64c16.11-5.01,28.63-14.06,31.78-31.94
		c1.69-9.6,0.03-19.07-2.93-28.28c-5.85-18.16-15.91-33.99-27.41-48.99c-3.21-4.18-6.64-8.19-9.26-11.41
		c-18.79,15.62-37.02,30.71-55.12,45.95c-1.28,1.08-2.02,3.2-2.32,4.95c-2.62,15-4.92,30.07-7.66,45.05
		C348.09,368.75,345.95,376.7,343.96,385.35z M155.99,114.9c-6.35-0.99-12.22-2.09-18.14-2.81c-21.06-2.55-42.05-3.4-62.63,3.38
		c-17.6,5.79-29.58,18.94-29.7,34.56c-0.07,8.44,1.1,17.22,3.54,25.3c6.94,22.95,20.99,41.86,36.29,59.89
		c0.26,0.31,0.84,0.36,0.05,0.05c18.75-15.58,36.98-30.68,55.08-45.92c1.28-1.07,2-3.2,2.31-4.96c2.62-15.01,4.92-30.07,7.66-45.05
		C151.92,131.27,154.06,123.32,155.99,114.9z M414.65,235.3c2.97-3.64,6.61-7.76,9.88-12.15c13.56-18.18,25.77-37.11,29.53-60.06
		c2.03-12.39,0.85-24.24-8-33.76c-5.54,2.63-10.54,5.84-16.02,7.46c-22.59,6.67-42.94-2.1-54.85-22.95
		c-0.7-1.22-2.62-2.65-3.83-2.53c-9,0.9-17.96,2.17-27.18,3.35c0.2,1.7,0.26,2.79,0.46,3.86c4.19,22.29,8.37,44.57,12.66,66.84
		c0.28,1.44,1.11,3.09,2.22,4.01C377.64,204.58,395.86,219.69,414.65,235.3z M155.87,385.36c-0.13-1.38-0.14-1.86-0.22-2.33
		c-4.3-22.93-8.55-45.87-13.03-68.76c-0.35-1.77-2.1-3.5-3.62-4.76c-10.37-8.59-21-16.88-31.24-25.62
		c-7.37-6.29-14.26-13.13-21.7-20.05c-3.66,4.49-7.28,8.62-10.55,13.01c-13.57,18.18-25.75,37.11-29.56,60.06
		c-1.64,9.87-1.33,19.65,4.43,28.96c1.72-1.47,3.14-2.74,4.61-3.94c6.31-5.12,13.51-8.44,21.5-9.57
		c23.58-3.35,44.14,9.78,51.35,32.76c0.83,2.63,1.75,3.83,4.66,3.39C140.16,387.37,147.86,386.43,155.87,385.36z M416.33,120.51
		c15.24,0,27.58-12.24,27.66-27.45c0.08-15.28-12.7-28.05-27.86-27.84c-15.12,0.21-27.63,12.85-27.51,27.8
		C388.73,108.15,401.18,120.5,416.33,120.51z M83.5,425.51c15.1,0.08,27.6-12.18,27.89-27.35c0.29-15-12.74-28.13-27.82-28.02
		c-15.07,0.11-27.54,12.64-27.56,27.7C55.99,413,68.34,425.43,83.5,425.51z M325.93,118.46c-18.1,5.94-35.26,11.57-52.84,17.33
		c21.67,12.51,42.54,24.56,64.21,37.07C333.52,154.77,329.83,137.1,325.93,118.46z M226.89,364.21
		c-21.64-12.48-42.52-24.52-64.2-37.02c3.83,18.24,7.53,35.87,11.42,54.39C192.28,375.6,209.39,369.97,226.89,364.21z
		 M139.54,287.15c0-25.22,0-49.04,0-74.28c-14.12,12.65-27.51,24.65-41.5,37.18C112.18,262.69,125.51,274.6,139.54,287.15z
		 M360.46,287.18c14.13-12.66,27.52-24.67,41.5-37.19c-14.16-12.65-27.48-24.56-41.5-37.09
		C360.46,238.13,360.46,261.94,360.46,287.18z M226.85,135.83c-17.73-5.8-34.95-11.43-52.83-17.27
		c-3.93,18.95-7.55,36.4-11.26,54.25C184.41,160.32,205.14,148.36,226.85,135.83z M325.93,381.55c3.89-18.64,7.58-36.29,11.35-54.34
		c-21.69,12.51-42.55,24.54-64.11,36.98C290.58,369.91,307.61,375.52,325.93,381.55z"/>
	<path class="st0" d="M203.93,240.78c0-25.32,21.04-46.36,46.19-46.19c25.36,0.17,46.17,21.2,45.93,46.43
		c-0.23,25.26-20.77,45.81-45.93,45.96C224.98,287.14,203.93,266.09,203.93,240.78z M277.58,240.9
		c0.08-15.18-12.16-27.65-27.33-27.84c-15.06-0.19-27.58,12.12-27.81,27.35c-0.23,15.36,12.24,28.07,27.56,28.07
		C265.12,268.49,277.5,256.1,277.58,240.9z"/>
</g>
</svg>
