<?xml version="1.0" encoding="utf-8"?>
<!-- Generator: Adobe Illustrator 24.0.0, SVG Export Plug-In . SVG Version: 6.00 Build 0)  -->
<svg version="1.1" id="Capa_1" xmlns="http://www.w3.org/2000/svg" xmlns:xlink="http://www.w3.org/1999/xlink" x="0px" y="0px"
	 viewBox="0 0 500 500" style="enable-background:new 0 0 500 500;" xml:space="preserve">
<style type="text/css">
	.st0{fill:#FFFFFF;}
</style>
<g>
	<path class="st0" d="M0.5,361.94c1.93-2.37,3.68-4.92,5.83-7.07c24.88-24.97,49.78-49.92,74.83-74.72c2.6-2.58,2.89-4.72,1.93-8.03
		c-10.89-37.5-11.26-75.19-1.66-113.01c1.07-4.2,2.96-8.12,7.52-8.48c3.05-0.24,6.78,0.83,9.26,2.62c3.49,2.52,3.54,6.85,2.05,10.71
		c-1.64,4.25-0.28,6.98,2.86,10.05c15.79,15.45,31.36,31.12,46.89,46.83c2.27,2.29,4.39,3.28,7.66,2.71
		c11.51-2.01,23.08-3.66,34.57-5.73c1.74-0.31,3.95-1.69,4.73-3.2c13.02-25.22,25.89-50.52,38.63-75.88
		c0.72-1.42,0.67-3.83-0.04-5.28c-5.42-11.07-11.02-22.05-16.77-32.96c-0.68-1.3-2.47-2.58-3.92-2.82
		c-23.53-3.89-47.08-7.66-70.66-11.27c-1.38-0.21-3.32,0.83-4.46,1.87c-4.8,4.43-10.18,5.06-14.34,1.38
		c-4.28-3.78-4.38-9.67,0.02-14.72c35.67-41,80.29-66.06,134.3-72.62C349.03-8.51,430.24,33,473.6,111.11
		c20.38,36.71,28.44,76.33,25.21,118.23c-6.7,86.98-66.01,161.3-149.51,186.65c-42.84,13.01-85.76,12.59-128.38-1.37
		c-3.96-1.3-6.35-0.65-9.27,2.31c-25.14,25.4-50.45,50.63-75.76,75.85c-2.38,2.38-5.12,4.4-7.69,6.58c-1.95,0-3.9,0-5.85,0
		c-8.65-5.95-9.14-11.43-1.69-18.89c23.88-23.89,47.76-47.77,71.64-71.66c1.12-1.12,2.19-2.3,3.62-3.82
		c-47.6-23.61-82.21-59.38-104.86-109.5c-1.5,2.47-2.17,4.27-3.41,5.5c-22.69,22.78-45.43,45.51-68.19,68.23
		c-7.49,7.48-12.76,7.06-18.98-1.44C0.5,365.84,0.5,363.89,0.5,361.94z M480.1,215.54c-0.1-27.36-4.69-51.42-13.9-74.61
		c-1.06-2.66-2.38-4-5.44-4.47c-23.09-3.52-46.13-7.35-69.22-10.89c-1.57-0.24-3.82,0.62-4.99,1.76
		c-8.75,8.47-17.37,17.07-25.83,25.84c-1.19,1.24-1.95,3.7-1.69,5.41c4.2,27.74,8.54,55.47,13.09,83.16
		c0.32,1.96,2.17,4.31,3.95,5.28c10.27,5.55,20.66,10.89,31.19,15.93c1.94,0.93,5.1,0.96,7.01,0.02
		c17.16-8.46,33.86-17.94,51.33-25.67C476.94,232.29,483.17,225.94,480.1,215.54z M214.15,224.11c0.49,0.64,0.82,1.2,1.27,1.64
		c19.27,19.3,38.6,38.55,57.78,57.94c2.18,2.2,3.69,1.54,5.84,0.43c23.38-11.96,46.77-23.92,70.24-35.7c2.8-1.41,3.7-2.83,3.19-5.93
		c-4.28-26.25-8.46-52.51-12.52-78.8c-0.41-2.65-1.49-3.42-3.94-3.77c-8.83-1.27-17.62-2.79-26.43-4.18
		c-17.3-2.75-34.6-5.49-51.91-8.19c-2.16-0.34-4.17-0.94-5.64,1.98C239.52,174.42,226.82,199.23,214.15,224.11z M286.99,19.67
		c-4.7,0.27-9.42,0.32-14.08,0.93c-1.57,0.21-3.61,1.51-4.32,2.88c-10.82,20.87-21.51,41.82-32.03,62.84
		c-0.78,1.55-0.73,4.16,0.04,5.74c5.26,10.78,10.7,21.48,16.37,32.05c0.9,1.67,3.14,3.36,4.99,3.66
		c27.69,4.53,55.42,8.86,83.16,13.09c1.64,0.25,4.03-0.12,5.13-1.18c9.11-8.8,18.04-17.78,26.88-26.85
		c0.92-0.95,1.45-2.91,1.24-4.25c-3.57-23.08-7.38-46.12-10.87-69.22c-0.49-3.27-1.93-4.64-4.76-5.76
		C335.68,24.51,311.77,19.94,286.99,19.67z M275.96,345.26c0.46,0.78,0.98,2.31,2,3.34c16.71,16.82,33.45,33.6,50.31,50.26
		c1,0.99,3.18,1.6,4.54,1.27c29.59-7.01,55.83-20.66,78.96-40.32c1.09-0.92,1.89-3.09,1.67-4.5c-3.57-23.24-7.28-46.47-11.15-69.66
		c-0.29-1.73-1.69-3.89-3.19-4.69c-10.87-5.8-21.87-11.36-32.93-16.79c-1.32-0.65-3.54-0.64-4.86,0.03
		c-25.49,12.84-50.91,25.81-76.3,38.83c-1.14,0.58-2.52,1.84-2.71,2.96C280.12,318.79,278.13,331.61,275.96,345.26z M197.94,236.96
		c-1.38,0.13-1.87,0.16-2.35,0.23c-12.33,1.95-24.67,3.84-36.97,5.96c-1.28,0.22-2.79,1.58-3.42,2.8
		c-10.84,21.03-21.61,42.11-32.21,63.26c-0.69,1.37-0.6,3.84,0.2,5.14c15.88,25.69,36.71,46.51,62.41,62.4
		c1.22,0.75,3.49,0.98,4.73,0.36c21.29-10.69,42.51-21.53,63.69-32.46c1.22-0.63,2.54-2.16,2.76-3.46
		c2.11-12.3,4.11-24.63,5.83-36.99c0.24-1.72-0.71-4.17-1.96-5.43c-19.75-19.96-39.63-39.79-59.52-59.61
		C200.06,238.11,198.63,237.43,197.94,236.96z M245.75,24.34c-33,7.46-61.43,21.96-87.07,44.42c2.14,0.43,3.05,0.64,3.98,0.79
		c17.29,2.73,34.6,5.33,51.85,8.3c3.22,0.55,4.59-0.22,5.96-2.97c7.76-15.5,15.7-30.91,23.55-46.36
		C244.57,27.43,244.96,26.26,245.75,24.34z M431.06,341.16c22.48-25.7,37.07-54.07,44.36-86.41c-0.82-0.05-1.18-0.18-1.41-0.06
		c-16.78,8.5-33.58,16.97-50.27,25.66c-1.03,0.54-1.83,2.85-1.65,4.19c1.35,9.8,2.95,19.57,4.52,29.34
		C428.01,322.61,429.46,331.34,431.06,341.16z M453.73,115.61c-17.53-29.28-40.14-51.9-68.73-68.99c-0.24,0.89-0.43,1.22-0.38,1.5
		c2.9,18.56,5.78,37.12,8.86,55.65c0.18,1.08,1.91,2.47,3.12,2.72c5.23,1.08,10.53,1.79,15.81,2.62
		C425.83,111.22,439.23,113.33,453.73,115.61z M110.61,290.27c9.41-18.46,18.41-36.13,26.9-52.78
		c-14.49-14.55-28.41-28.51-42.12-42.27C90.36,216.94,97.53,263.24,110.61,290.27z M209.39,389.42
		c31.45,13.4,62.96,18.64,96.11,15.4c-14.42-14.42-28.37-28.38-42.66-42.68C245.62,370.93,227.96,379.94,209.39,389.42z"/>
	<path class="st0" d="M0.5,486.7c2.19-2.56,4.22-5.28,6.59-7.67c13.82-13.93,27.66-27.84,41.67-41.57c2.07-2.03,4.96-3.71,7.76-4.38
		c3.98-0.95,7.31,1.1,9.28,4.71c1.95,3.57,1.74,7.2-0.73,10.51c-1.06,1.42-2.35,2.68-3.61,3.94
		c-13.52,13.54-27.03,27.09-40.62,40.56c-2.39,2.37-5.11,4.4-7.67,6.58c-4.22,0-8.45,0-12.67,0C0.5,495.14,0.5,490.92,0.5,486.7z"/>
	<path class="st0" d="M97.73,118.85c0.04-5.4,4.18-9.51,9.59-9.51c5.35-0.01,9.66,4.18,9.73,9.47c0.07,5.38-4.59,10.02-9.92,9.89
		C101.89,128.55,97.7,124.17,97.73,118.85z"/>
	<path class="st0" d="M124.47,385.89c-2,3.41-2.97,6.1-4.78,7.98c-8.81,9.09-17.77,18.03-26.82,26.89
		c-4.65,4.55-10.19,4.59-14.28,0.5c-4.07-4.08-3.99-9.62,0.56-14.27c8.86-9.04,17.85-17.95,26.84-26.87
		c3.27-3.25,7.4-4.94,11.43-2.31C120.24,379.64,122.05,383.01,124.47,385.89z"/>
</g>
</svg>
