<?xml version="1.0" encoding="utf-8"?>
<!-- Generator: Adobe Illustrator 24.0.0, SVG Export Plug-In . SVG Version: 6.00 Build 0)  -->
<svg version="1.1" id="Capa_1" xmlns="http://www.w3.org/2000/svg" xmlns:xlink="http://www.w3.org/1999/xlink" x="0px" y="0px"
	 viewBox="0 0 500 500" style="enable-background:new 0 0 500 500;" xml:space="preserve">
<style type="text/css">
	.st0{fill:#FFFFFF;}
</style>
<g>
	<path class="st0" d="M231.97,0c8.61,1.46,17.29,2.56,25.8,4.44c24.43,5.39,46.62,15.78,66.64,30.8c0.9,0.67,1.84,1.28,3.26,2.26
		c6.3-6.33,12.57-12.63,18.84-18.92c3.44-3.45,6.84-6.95,10.35-10.33c8.93-8.59,21.78-8.5,30.51,0.37
		c35.31,35.86,57.86,78.43,65.88,128.21c10.43,64.72-2.75,124.43-40.97,177.83c-35.78,50-84.23,81.45-144.39,94.64
		c-1.9,0.42-3.8,0.82-5.7,1.24c-0.15,0.03-0.28,0.14-0.67,0.34c0,10.7,0,21.54,0,33.13c1.92,0,3.81,0,5.69,0
		c18.84,0,37.69-0.03,56.53,0.01c22.25,0.05,34.93,12.86,34.93,35.19c0,3.9,0.09,7.8-0.03,11.7c-0.15,5.34-2.83,7.91-8.23,8.1
		c-0.97,0.04-1.95,0.01-2.92,0.01c-74.07,0-148.15,0-222.22,0c-9.49,0-11.34-1.8-11.24-11.41c0.06-5.99-0.32-12.12,0.73-17.95
		c2.65-14.61,14.34-24.97,29.18-25.36c20.45-0.53,40.93-0.23,61.4-0.28c1.9,0,3.8,0,5.85,0c0-10.21,0-19.73,0-29.31
		c-10.17-1.15-20.16-2.03-30.07-3.46c-18.39-2.65-36.1-7.87-53.28-14.9c-4.55-1.86-6.3-5.85-4.68-9.81
		c1.57-3.85,5.62-5.47,10.2-3.65c18.79,7.44,38.1,12.75,58.23,15.08c50.75,5.89,98.47-3.48,142.06-30.14
		c56.38-34.48,92.38-84.35,104.24-149.53c13.81-75.84-6.77-142.31-59.93-198.42c-3.97-4.2-7.26-4.59-10.93-1.02
		c-8.62,8.38-17.05,16.95-25.55,25.44c-0.79,0.79-1.54,1.64-2.09,2.23c3.13,2.99,6.12,5.85,9.64,9.21
		c4.87-4.95,10.25-10.52,15.73-15.98c5.5-5.49,9.15-5.29,14.15,0.71c35.11,42.1,51.57,90.64,49.7,145.32
		c-0.33,9.69-1.96,19.36-3.35,28.99c-0.85,5.9-3.97,8.25-8.69,7.48c-4.55-0.74-6.52-4.28-5.55-10.07
		c9.14-54.49-1.75-104.49-33.55-149.81c-1.49-2.13-3.11-4.16-4.69-6.23c-0.39-0.51-0.84-0.96-1.25-1.41
		c-4.33,4.61-8.58,9.15-12.93,13.79c56.07,72.1,45.13,171.68-14.47,231.96C286,359.3,185.68,374.01,110.11,315.65
		c-4.2,4.59-8.42,9.2-12.69,13.88c25.98,20.75,56.03,34.42,89.55,39.63c53.09,8.25,102.06-2.71,145.9-34.12
		c31.83-22.81,54.83-52.69,68.78-89.4c0.69-1.82,1.22-3.74,2.17-5.41c1.91-3.34,4.85-4.77,8.64-3.52c3.79,1.25,5.32,4.09,4.83,7.95
		c-0.18,1.43-0.66,2.85-1.2,4.19c-31.95,78.63-89.55,125.31-173.97,135.95c-59.29,7.47-112.36-9.76-158.59-47.72
		c-6.88-5.65-7.02-9.14-0.62-15.47c5.19-5.13,10.44-10.2,15.74-15.37c-3.43-3.35-6.48-6.33-9.74-9.52
		c-9.04,9.09-18.24,18.26-27.33,27.53c-3.59,3.66-3.7,7.62,0.4,10.94c13.21,10.71,26.69,21.1,40.1,31.57
		c1.53,1.19,3.36,1.98,4.95,3.09c3.96,2.75,4.97,6.43,2.84,10.05c-2.19,3.73-6.18,4.61-10.56,2.31c-1.15-0.6-2.24-1.32-3.35-1.99
		c-16.2-9.78-31.02-21.34-44.44-34.68c-9.67-9.61-9.71-22.19-0.04-31.93c9.38-9.45,18.84-18.81,27.64-27.6
		c-6.89-11.92-14.33-23.01-20.02-34.94C9.51,147,74.3,22.33,187.91,2.82c6.22-1.07,12.48-1.88,18.72-2.82
		C215.07,0,223.52,0,231.97,0z M88.07,80.62c-32.67,48.12-40.5,99.23-20.27,153.53c14.55,39.08,41.5,67.6,79.28,87.25
		c-1.05-13.83,1.44-25.44,9.68-35.42c6.8-8.24,15.49-11.1,25.68-8.54c5.79,1.45,11.36,3.79,16.97,5.9
		c13.7,5.17,21.34,1.85,26.74-11.96c2.42-6.18,4.33-12.57,6.85-18.71c4.54-11.06,12.55-18.88,24.34-21.1
		c7.83-1.47,16.28-2.09,24.07-0.81c23,3.79,38.16,18.18,47.86,38.75c2.65,5.62,4.54,11.59,6.97,17.89
		c11.96-12.64,21.52-26.46,28.77-42.11c-5.15-2.51-9.87-4.65-14.43-7.08c-12.26-6.54-23.86-13.97-31.93-25.69
		c-12.12-17.59-6.99-41.13,11.39-52.01c4.17-2.47,8.67-4.4,13.12-6.34c4.88-2.13,7.98-5.47,10.04-10.52
		c3.61-8.82,7.66-17.52,12.22-25.88c1.79-3.29,2-5.53,0.45-8.81C353,81.56,334.11,59.34,309.12,42.31
		c-3.02-2.06-6.16-3.92-8.88-5.64c-3.57,6.81-6.48,13.35-10.26,19.33c-4.3,6.81-4.7,7.57,0.3,13.97
		c4.19,5.37,8.93,10.35,12.81,15.93c10.46,15.07,6.69,29.74-9.67,38.02c-5.34,2.7-11.07,4.61-16.51,7.11
		c-7.68,3.53-8.54,5.56-6.16,13.72c2.14,7.31,4.8,14.49,6.48,21.9c2.97,13.08-3.75,21.75-17.21,22.25
		c-15.35,0.57-28.27-5.05-38.29-16.76c-10.42-12.18-15.28-26.58-16.16-42.41c-0.95-17.13-5.62-23.32-22.54-24.4
		c-13.98-0.89-28.19,0.1-42.18,1.48c-18.82,1.85-34.15-3.85-46.39-18.11C92.35,86.23,90.45,83.63,88.07,80.62z M98.53,68.64
		c8.28,15.8,22.37,26.2,43.07,23.44c14.67-1.96,29.79-2.06,44.6-1.18c17.9,1.05,29.26,11.05,32.59,26.37
		c0.93,4.25,1.04,8.69,1.41,13.05c0.88,10.38,3.81,20.07,9.83,28.64c6.64,9.46,15.68,14.86,27.38,15.35
		c5.81,0.24,6.76-0.86,5.17-6.43c-2.09-7.32-4.74-14.49-6.64-21.85c-3.16-12.26,0.4-20.26,11.42-26.52
		c2.52-1.44,5.25-2.52,7.92-3.69c4.15-1.83,8.47-3.33,12.47-5.43c7.05-3.72,8.26-8.54,3.95-15.2c-1.84-2.85-4.15-5.4-6.25-8.07
		c-3.2-4.08-6.75-7.94-9.55-12.28c-6.15-9.53-5.31-16.64,1.09-26.03c3.93-5.76,6.63-12.35,9.89-18.58
		C229.05,1.6,148.15,12.03,98.53,68.64z M218.57,338.05c2.11,0,4.23,0.09,6.33-0.02c3.4-0.19,6.81-0.44,10.2-0.79
		c32.18-3.36,60.83-15.27,85.85-35.77c1.15-0.94,1.96-3.3,1.7-4.78c-1.96-11.13-5.8-21.6-12.32-30.93
		c-7.45-10.66-17.32-17.82-30.2-20.61c-18.95-4.11-30.22,2.21-36.45,20.47c-1.57,4.6-3.05,9.26-4.99,13.7
		c-8.18,18.68-23.37,25.2-42.54,18.38c-5.19-1.85-10.25-4.08-15.5-5.73c-6.45-2.03-9.92-0.59-13.83,4.9
		c-5.9,8.29-5.91,17.57-4.73,27.1c0.38,3.06,1.74,4.64,4.83,5.67C183.71,335.23,200.92,337.93,218.57,338.05z M343.54,484.3
		c2.84-16.04-4.7-25.94-21.43-25.78c-57.82,0.56-115.64,0.46-173.46,0.04c-13.79-0.1-23.11,9.56-19.22,25.74
		C200.68,484.3,271.97,484.3,343.54,484.3z M374.65,132.95c-0.44-0.03-0.88-0.07-1.32-0.1c-2.27,5.53-4.77,10.97-6.75,16.6
		c-2.93,8.34-8.48,14.01-16.43,17.57c-3.84,1.72-7.75,3.34-11.45,5.34c-12.49,6.78-15.9,21.52-7.26,32.76
		c10.03,13.06,24.5,19.7,39.39,26.53C382.43,198.66,383.54,165.98,374.65,132.95z M246.23,443.75c0-10.43,0-20.52,0-30.86
		c-6.96,0.54-13.5,1.05-19.93,1.55c0,10.05,0,19.55,0,29.58c5.41,0,10.56,0.02,15.71-0.01C243.43,444,244.85,443.84,246.23,443.75z"
		/>
	<path class="st0" d="M103.45,234.76c1.2-4.67,2.25-9.39,3.63-14.01c1.87-6.27,1.21-9.33-4.3-12.92
		c-5.15-3.35-10.65-6.18-16.06-9.12c-13.08-7.1-17.79-18.61-11.31-31.89c10.78-22.07,28.92-34.43,53.5-36.8
		c5.77-0.56,9.17,2.2,9.51,6.72c0.35,4.69-2.67,7.39-8.9,7.89c-16.6,1.34-28.69,10.21-38.31,23.08c-1.42,1.9-2.42,4.25-3.13,6.55
		c-1.63,5.29-0.38,8.2,4.5,10.93c4.95,2.78,10.07,5.25,14.95,8.15c14.24,8.46,17.85,18.35,12.65,34.05
		c-4.08,12.35,1.72,23.65,13.18,25.66c9.14,1.61,16.08-2.89,18.03-11.92c1.03-4.75,1.63-9.59,2.54-14.37
		c1.67-8.82,6.08-15.63,14.47-19.5c1.32-0.61,2.56-1.41,3.78-2.2c9.03-5.84,10.94-11.75,6.48-21.5
		c-5.09-11.12-12.97-20.13-22.13-28.08c-1.22-1.06-2.61-2.01-3.59-3.26c-2.41-3.1-2.34-6.42,0.26-9.32
		c2.42-2.69,5.84-3.75,8.77-1.47c15.38,11.97,28.2,26,32.98,45.59c2.4,9.83-1.1,18.22-8.24,25.14c-1.62,1.57-3.29,3.45-5.31,4.21
		c-11.08,4.19-13.67,13.06-15,23.74c-2.71,21.78-21.41,33.12-41.32,25.89C112.41,261.39,104.14,249.11,103.45,234.76z"/>
</g>
</svg>
