<?xml version="1.0" encoding="utf-8"?>
<!-- Generator: Adobe Illustrator 24.0.0, SVG Export Plug-In . SVG Version: 6.00 Build 0)  -->
<svg version="1.1" id="Capa_1" xmlns="http://www.w3.org/2000/svg" xmlns:xlink="http://www.w3.org/1999/xlink" x="0px" y="0px"
	 viewBox="0 0 500 500" style="enable-background:new 0 0 500 500;" xml:space="preserve">
<style type="text/css">
	.st0{fill:#FFFFFF;}
</style>
<g>
	<path class="st0" d="M466.42,0.33c4.58,1.95,9.48,3.38,13.69,5.94c19.47,11.87,28.63,39.69,6.38,60.23
		c-45.71,42.21-91.07,84.8-136.57,127.23c-2.35,2.19-4.69,4.39-7.79,7.3c9.98,1.42,19.12,2.26,28.06,4.11
		c9.33,1.93,18.83,3.92,27.6,7.5c22.31,9.08,33.62,27.12,36.34,50.26c5.07,43.26-3.61,84.26-24.61,122.12
		c-33.72,60.8-85.1,98.2-153.59,111.11c-84.6,15.95-173.96-23.2-220.43-95.88c-19.7-30.81-31.35-64.29-34.16-100.8
		c-0.1-1.26-0.53-2.5-0.81-3.74c0-9.42,0-18.85,0-28.27c1.61-10.4,2.82-20.88,4.91-31.18c5.53-27.2,16.35-52.24,31.78-75.3
		c3.83-5.72,9.21-7.23,14.11-4.1c5.01,3.2,5.94,9.03,2.05,14.89c-17.66,26.57-28.66,55.67-32.04,87.36
		C15.7,312,28.65,360.1,61.12,402.3c32.21,41.86,74.93,66.78,127.03,75.42c84.87,14.07,172.89-33.03,209.19-111.69
		c13.66-29.59,20.09-60.57,18.37-93.15c-0.27-5.15-1.23-10.33-2.5-15.33c-4.18-16.41-15.19-26.33-31.29-29.98
		c-13.26-3.01-26.83-4.64-40.26-6.88c-4.32-0.72-8.72-1.16-12.92-2.31c-3.07-0.84-5.12-0.32-7.36,1.89
		c-5.32,5.24-10.98,10.14-16.29,15.4c-1.21,1.2-2.19,3.26-2.22,4.94c-0.28,15.69-7.19,27.85-19.87,36.58
		c-22.43,15.43-46.61,16.26-71.58,7.36c-5.46-1.95-10.68-4.71-15.77-7.54c-7.83-4.35-8.28-12.65-0.88-17.54
		c7.49-4.95,12.18-11.99,16.15-19.72c3.55-6.92,6.77-14.06,10.78-20.71c8.51-14.1,21.07-21.61,37.75-21.97
		c1.56-0.03,3.47-0.84,4.56-1.94c5.03-5.08,9.9-10.32,14.62-15.67c0.88-1,1.31-2.86,1.16-4.25c-1.37-12.88-2.95-25.73-4.39-38.6
		c-1-8.85-1.4-17.8-2.95-26.56c-1.89-10.64-8.86-17.34-18.83-21.16c-11.45-4.39-23.43-5.01-35.47-5.02
		c-38.66-0.04-74.29,10.42-106.88,31.21c-1.37,0.87-2.71,1.79-4.11,2.61c-5.41,3.2-11.1,2.09-14.06-2.71
		c-2.87-4.67-1.59-10.1,3.43-13.53c15.35-10.49,31.84-18.82,49.39-24.92c30.5-10.6,61.85-14.66,93.98-10.79
		c7.33,0.88,14.74,2.71,21.63,5.37c21.73,8.36,30.54,25.94,32.31,47.9c0.94,11.65,1.32,23.35,2,35.02c0.1,1.71,0.41,3.4,0.76,6.2
		c3.42-3.63,6.08-6.43,8.71-9.25c42.31-45.39,84.68-90.73,126.86-136.25c6.37-6.87,13.68-11.73,22.56-14.4
		C458.62,0.33,462.52,0.33,466.42,0.33z M336.81,179.12c1.52-1.35,2.75-2.39,3.92-3.48c19.95-18.59,39.89-37.19,59.83-55.79
		c24.22-22.58,48.42-45.18,72.65-67.74c4.06-3.78,7.47-7.97,6.74-13.87c-1.06-8.5-6.09-14.18-13.89-17.3
		c-7.43-2.97-13.11,0.18-18.16,5.6c-41.25,44.32-82.55,88.59-123.82,132.89c-1.08,1.15-2.06,2.39-3.23,3.75
		c2.86,2.57,5.6,4.83,8.09,7.33C331.57,173.13,333.97,175.99,336.81,179.12z M246.04,220.76c9.79,6.23,13.47,11.16,15.63,21.08
		c0.9,4.12,1.34,8.33,2.25,12.44c0.7,3.18,1.81,6.26,2.92,10.02c10.05-5.76,16.39-12.55,16.46-23.55
		c0.06-10.08-4.65-17.52-13.59-21.84C261.73,215.06,253.79,215.74,246.04,220.76z M297.72,215.77c7.45-6.96,15.96-14.9,25.72-24.01
		c-5.15-5.26-9.98-10.19-15.12-15.45c-9.34,10.03-17.33,18.61-24.15,25.94C288.84,206.91,293.06,211.12,297.72,215.77z
		 M247.35,270.25c-1.47-7.71-2.83-15.16-4.36-22.57c-0.45-2.2-1.08-4.47-2.18-6.39c-1.81-3.13-6.93-3.58-8.48-0.83
		c-4.82,8.53-9.48,17.15-14.25,25.83C227.47,270.08,237.4,271.34,247.35,270.25z"/>
	<path class="st0" d="M122,228.54c-23.69-0.02-42.62-19.04-42.61-42.79c0.02-23.61,19.22-42.8,42.76-42.73
		c23.57,0.07,42.76,19.34,42.69,42.88C164.78,209.55,145.67,228.56,122,228.54z M122.22,209.04c12.8-0.06,23.18-10.48,23.16-23.23
		c-0.02-12.74-10.46-23.21-23.22-23.28c-12.93-0.08-23.4,10.53-23.29,23.58C98.98,198.97,109.29,209.1,122.22,209.04z"/>
	<path class="st0" d="M82.46,239.14c23.53,0.05,42.77,19.39,42.67,42.88c-0.1,23.42-19.65,42.83-42.99,42.68
		c-23.5-0.15-42.69-19.52-42.61-43.01C39.61,258.13,58.82,239.08,82.46,239.14z M82.64,258.63c-12.87-0.13-23.4,10.03-23.61,22.77
		c-0.21,12.93,10.3,23.73,23.18,23.8c12.61,0.07,23.28-10.46,23.43-23.13C105.79,269.41,95.35,258.76,82.64,258.63z"/>
	<path class="st0" d="M396.54,281.98c-0.06,23.62-19.3,42.83-42.79,42.72c-23.58-0.11-42.63-19.34-42.55-42.95
		c0.07-23.69,19.11-42.66,42.79-42.61C377.61,239.18,396.6,258.29,396.54,281.98z M377.05,281.87c0-12.91-10.2-23.19-23.05-23.24
		c-13.09-0.05-23.42,10.33-23.32,23.45c0.1,12.77,10.6,23.19,23.28,23.12C366.72,305.12,377.04,294.69,377.05,281.87z"/>
	<path class="st0" d="M218.26,188.74c-23.61,0.09-42.85-18.93-43.01-42.51c-0.16-23.46,19.05-42.77,42.65-42.86
		c23.67-0.09,42.84,18.9,42.91,42.5C260.87,169.55,241.91,188.65,218.26,188.74z M218.28,169.24c12.86-0.08,23.07-10.39,23.04-23.27
		c-0.03-12.85-10.29-23.09-23.19-23.12c-13-0.03-23.63,10.66-23.38,23.51C195,159.17,205.45,169.33,218.28,169.24z"/>
	<path class="st0" d="M260.8,417.54c0.05,23.62-19.05,42.86-42.6,42.91c-23.47,0.06-42.84-19.2-42.95-42.68
		c-0.11-23.36,19.3-42.88,42.71-42.95C241.46,374.76,260.75,393.99,260.8,417.54z M241.31,417.57
		c-0.04-12.75-10.51-23.23-23.2-23.25c-12.65-0.02-23.25,10.51-23.35,23.19c-0.11,12.84,10.65,23.55,23.54,23.45
		C231.04,440.86,241.35,430.38,241.31,417.57z"/>
	<path class="st0" d="M121.87,420.58c-23.67-0.07-42.54-19.13-42.48-42.9c0.06-23.59,19.43-42.81,42.88-42.57
		c23.72,0.25,42.76,19.47,42.57,42.97C164.66,401.79,145.58,420.65,121.87,420.58z M122.03,401.1
		c12.84,0.01,23.23-10.24,23.35-23.05c0.12-12.86-10.68-23.64-23.51-23.48c-12.81,0.16-23.03,10.57-22.99,23.4
		C98.91,390.88,109.13,401.09,122.03,401.1z"/>
	<path class="st0" d="M271.4,381.52c0.02-22.25,11.73-38.4,29.38-44.23c17.31-5.71,36.65,0.33,47.43,14.83
		c4.3,5.78,4.03,11.42-0.71,15.08c-4.58,3.53-10.31,2.31-14.73-3.21c-6.31-7.87-14.5-10.93-24.21-8.63
		c-9.14,2.17-15.12,8.26-17.1,17.44c-2.11,9.76,1.13,17.86,9.12,24.03c5.61,4.33,6.75,10.03,3.11,14.71
		c-3.67,4.72-9.28,5.04-15.05,0.65C277.31,403.56,271.6,392.06,271.4,381.52z"/>
	<path class="st0" d="M80.74,135.02c-0.06,5.36-4.3,9.58-9.61,9.58c-5.26-0.01-9.6-4.31-9.66-9.59c-0.07-5.46,4.5-9.99,9.92-9.83
		C76.7,125.32,80.8,129.64,80.74,135.02z"/>
	<path class="st0" d="M337.45,410.88c-5.41,0-9.56-4.1-9.6-9.51c-0.05-5.33,4.14-9.73,9.38-9.87c5.3-0.14,10.06,4.57,9.98,9.89
		C347.13,406.62,342.76,410.88,337.45,410.88z"/>
</g>
</svg>
