<?xml version="1.0" encoding="utf-8"?>
<!-- Generator: Adobe Illustrator 24.0.0, SVG Export Plug-In . SVG Version: 6.00 Build 0)  -->
<svg version="1.1" id="Capa_1" xmlns="http://www.w3.org/2000/svg" xmlns:xlink="http://www.w3.org/1999/xlink" x="0px" y="0px"
	 viewBox="0 0 500 500" style="enable-background:new 0 0 500 500;" xml:space="preserve">
<style type="text/css">
	.st0{fill:#FFFFFF;}
</style>
<g>
	<path class="st0" d="M0.5,214.29c1.19-8.65,1.89-17.4,3.66-25.92c18.04-86.66,68.45-146.28,152-175.23
		c66.8-23.16,131.39-14.11,192.02,22.34c4.97,2.99,6.3,7,3.91,10.89c-2.42,3.92-6.55,4.6-11.45,1.56
		c-27.58-17.14-57.5-27.72-89.77-31.01c-51.63-5.26-99.43,6.25-142.29,35.6c-46.72,32-76.46,75.96-88.66,131.38
		C-2.22,284.41,52.05,387.03,147.42,425.35c1.89,0.76,4.07,1.16,6.11,1.16c49.51,0.06,99.01,0.07,148.52-0.01
		c2.2,0,4.57-0.41,6.56-1.29c71.69-31.72,116.19-85.97,128.84-163.23c12.65-77.26-12.87-142.44-70.89-194.89
		c-3.08-2.79-5.58-5.59-3.73-10.04c2.1-5.06,7.94-6.2,12.43-1.64c11.59,11.76,24,23.01,33.91,36.1
		c58.95,77.88,61.62,182.18,7.48,263.63c-0.8,1.21-1.56,2.45-2.66,4.18c7.92,7.07,15.86,14.17,24.09,21.52
		c8.89-8.57,19.15-18.45,29.81-28.73c-5.54-5.85-10.93-11.57-16.36-17.26c-2.4-2.51-3.87-5.21-2.39-8.75
		c2.02-4.82,7.84-6.38,11.61-2.49c9.7,10.02,19.93,19.71,28.29,30.79c11.4,15.13,13.42,32.64,6.42,50.31
		c-8.47,21.38-17.39,42.61-26.94,63.53c-7.7,16.87-21.4,26.89-39.72,30.41c-0.92,0.18-1.79,0.61-2.68,0.93
		c-132.13,0-264.26,0-396.39,0c-3.86-2.35-5.01-5.75-4.96-10.23c0.2-17.67,0.07-35.35,0.09-53.03c0.01-7.33,2.34-9.73,9.46-9.76
		c8.27-0.03,16.54-0.03,24.82,0c6.07,0.02,9.51,2.69,9.51,7.29c-0.01,4.6-3.46,7.28-9.52,7.31c-6.43,0.03-12.86,0.01-19.33,0.01
		c0,14.9,0,29.22,0,43.42c14.67,0,29,0,43.48,0c0-12.88,0.08-25.36-0.02-37.84c-0.16-21.08-1.05-20.43,19.99-20.19
		c3.74,0.04,7.49,0.01,12.61,0.01c-2.32-1.51-3.25-2.14-4.21-2.73C55,388.98,19.28,339.2,5.28,274.13
		c-2.24-10.4-3.22-21.06-4.78-31.6C0.5,233.11,0.5,223.7,0.5,214.29z M341.53,426.48c34.99,0,69.98,0.03,104.98-0.06
		c2.61-0.01,5.22-0.86,9.5-1.61c-16.9-19.25-34.28-36.01-50.95-53.9C386.84,393.38,365.63,411.41,341.53,426.48z M141.47,441.5
		c-14.69,0-29.01,0-43.21,0c0,14.66,0,28.97,0,43.23c14.59,0,28.79,0,43.21,0C141.47,470.28,141.47,456.08,141.47,441.5z
		 M199.91,441.51c-14.69,0-29.01,0-43.21,0c0,14.66,0,28.98,0,43.22c14.59,0,28.79,0,43.21,0
		C199.91,470.27,199.91,456.08,199.91,441.51z M214.98,441.37c0,14.75,0,28.95,0,43.33c14.56,0,28.88,0,43.25,0
		c0-14.61,0-28.92,0-43.33C243.7,441.37,229.5,441.37,214.98,441.37z M273.36,484.6c14.8,0,29.11,0,43.39,0c0-14.58,0-28.78,0-43.15
		c-14.57,0-28.88,0-43.39,0C273.36,455.95,273.36,470.15,273.36,484.6z M331.88,441.4c0,14.77,0,28.97,0,43.27
		c14.59,0,28.9,0,43.2,0c0-14.63,0-28.95,0-43.27C360.51,441.4,346.31,441.4,331.88,441.4z M390.3,441.37c0,14.76,0,28.97,0,43.28
		c11.41,0,22.6,0.57,33.7-0.17c9.9-0.66,9.86-1.3,9.86-11.03c0-4.22,0-8.44,0-12.66c0-6.43,0-12.86,0-19.42
		C419.03,441.37,404.81,441.37,390.3,441.37z M468.76,417.68c16.75-12.01,21.33-40.42,8.34-54.17
		c-10.13,9.77-20.25,19.54-30.26,29.21C454.2,401.1,461.33,409.23,468.76,417.68z M466.17,437.07c-6.34,1.57-11.91,2.95-17.34,4.3
		c0,9.99,0,19.75,0,30.62C457.55,461.12,460.53,448.78,466.17,437.07z"/>
	<path class="st0" d="M228.1,158.33c-10.06-0.15-19.26-3.2-27.9-7.9c-21.77-11.84-38.89-28.61-51.07-50.13
		c-12.19-21.53-7.47-39.46,13.36-53.04c16.49-10.75,34.97-15.22,54.29-16.54c24.5-1.66,48.41,1.05,70.27,13.05
		c6.82,3.74,13.14,9.01,18.47,14.72c7.7,8.23,10.61,18.92,6.32,29.43c-13.86,33.9-37.92,57.51-73.19,68.85
		C235.31,157.85,231.62,157.84,228.1,158.33z M160.13,90.15c8.47,16.25,20.3,29.23,34.77,39.72c25.28,18.32,41.57,18.2,66.65-0.44
		c14.18-10.54,25.93-23.34,34.03-39.26C256.65,69.29,201.35,68.46,160.13,90.15z M297.93,73.33c-1.42-2.2-2.42-4.9-4.34-6.5
		c-4.8-4.03-9.57-8.48-15.13-11.14c-26.06-12.46-53.37-13.4-81.16-7.24c-11.98,2.66-23.32,7.01-32.46,15.57
		c-2.78,2.61-4.8,6.03-7.17,9.08c0.34,0.38,0.68,0.75,1.02,1.13c22.09-9.69,45.15-14.73,69.21-14.73
		C251.97,59.49,275.03,64.56,297.93,73.33z"/>
	<path class="st0" d="M312.85,273.83c16.85,0.48,33.2,3.37,48.88,9.62c3.3,1.31,6.54,2.84,9.65,4.55
		c16.67,9.18,22.68,22.7,18.1,41.14c-4.57,18.42-15.44,33.03-28.9,45.83c-19.88,18.91-42.6,32.93-70.11,37.29
		c-7.68,1.22-15.91,0.93-23.6-0.36c-13.98-2.34-22.69-11.2-25.82-25.09c-4.42-19.58-2.73-39.02,2.58-58.14
		c2.11-7.6,4.97-15.08,8.38-22.2c9.53-19.96,26.14-29.76,47.75-31.79C304.11,274.28,308.49,274.11,312.85,273.83z M364.5,300.62
		c-19.67-9.37-39.46-12.67-60.27-11.68c-21.48,1.02-35.29,11.65-42.72,31.53c-5.63,15.06-8.5,30.55-8.31,46.59
		c0.05,4.29,0.66,8.58,1.07,13.54C303.58,370.56,339.73,344.18,364.5,300.62z M375.01,311.56c-12.68,21.82-28.45,39.46-48.01,53.63
		c-19.46,14.1-41.06,23.55-65.47,28.83c6.75,4.68,13.44,5.28,20.2,4.73c23.39-1.88,42.93-12.68,60.69-27.1
		c13.61-11.06,25.11-23.93,31.35-40.71C375.97,324.99,377.44,318.88,375.01,311.56z"/>
	<path class="st0" d="M217.41,364.11c-0.47,5.48-0.75,10.99-1.43,16.44c-3.25,26.16-21.5,33.86-41.91,32.7
		c-27.93-1.59-51.05-14.58-71.98-32.01c-14.23-11.86-26.07-25.77-32.93-43.26c-1.93-4.92-3.36-10.21-3.96-15.46
		c-1.57-13.78,3.45-24.75,15.36-32.27c12.27-7.74,25.92-11.71,40.04-14.15c15.12-2.61,30.26-3.03,45.41,0.25
		c16.22,3.52,28.06,12.68,36.18,27.02C211.32,319.52,216.68,341.01,217.41,364.11z M200.85,380.49c0.47-1.46,0.87-2.2,0.95-2.97
		c2.35-24.32-1.28-47.5-13.56-68.91c-5.34-9.3-13.4-15.25-23.96-17.6c-23.12-5.13-45.38-1.73-67.08,6.92
		c-1.87,0.74-3.61,1.8-5.8,2.9C116.07,344.19,152.2,370.49,200.85,380.49z M194.37,394.14c-50.06-11.51-87.5-38.79-113.8-82.59
		c-2.55,10.22,0.09,18.6,4.46,26.22c18.51,32.26,46.24,52.28,82.49,60.24C176.22,399.93,185.2,399.79,194.37,394.14z"/>
	<path class="st0" d="M424.29,210c-1.29,8.12-1.97,16.41-4,24.34c-6.27,24.56-22.19,34.55-46.89,29.3
		c-22.95-4.88-43.21-15.4-60.79-30.99c-18.12-16.08-23.81-35.95-18.23-59.33c5.57-23.35,16.12-44.09,32.9-61.32
		c15.03-15.42,31.08-16.75,48.93-4.53c12.45,8.52,21.41,20.16,28.6,33.23C416.65,162.23,423.13,185.22,424.29,210z M339.34,121.36
		c-0.93,0.44-1.26,0.52-1.5,0.72c-0.5,0.41-0.99,0.84-1.42,1.32c-15.37,17.04-25.21,36.81-28.93,59.46
		c-2.28,13.89,1.47,26.21,11.91,35.82c6.17,5.68,12.8,11.02,19.86,15.52c12.48,7.96,26,13.65,41.63,15.84
		C386.54,200.54,372.64,158,339.34,121.36z M396.06,246.63c0.42,0.2,0.84,0.41,1.25,0.61c2.14-3.13,5.06-5.99,6.24-9.45
		c2.22-6.53,4.41-13.33,4.89-20.14c1.96-27.94-5.89-53.49-20.69-76.99c-5.39-8.56-11.89-16.33-20.65-21.63
		c-4.06-2.46-8.79-3.83-13.21-5.7c-0.28,0.45-0.55,0.91-0.83,1.36C386.08,152.63,400.38,196.62,396.06,246.63z"/>
	<path class="st0" d="M117.37,120.4c-34.16,37.41-48.02,79.93-42.45,130.23c7.07-2.04,13.5-3.86,19.9-5.76
		c2.48-0.73,4.84-1.97,7.36-2.41c3.63-0.64,6.32,1.05,7.7,4.5c1.41,3.54,0.4,6.96-2.78,8.42c-14.12,6.49-28.71,11.52-44.59,8.88
		c-10.98-1.83-18-9.18-22.88-18.67c-5.61-10.92-7.55-22.76-7.26-34.89c0.86-36.36,12.02-68.87,37.79-95.2
		c5.62-5.74,13.09-10.18,20.47-13.54c11.01-5.02,21.95-3.14,31.54,4.47c14.36,11.38,23.71,26.51,31.15,42.9
		c5.66,12.47,9.56,25.45,10.04,39.32c0.47,13.44-3.33,25.43-12.31,35.37c-5.41,5.98-11.56,11.33-17.72,16.56
		c-3.75,3.17-8.15,2.34-10.68-1.18c-2.39-3.33-1.65-7.2,1.88-10.33c4.6-4.09,9.38-8,13.69-12.38c9.53-9.67,12.17-21.6,9.96-34.62
		c-3.64-21.45-13.02-40.26-27.05-56.82C119.98,123.88,118.94,122.43,117.37,120.4z M102.91,114.47c-0.93-0.19-1.38-0.39-1.79-0.34
		c-0.96,0.12-1.91,0.32-2.85,0.55c-7.86,1.94-14.13,6.59-19.37,12.42c-22.29,24.79-32.19,54.22-31.84,87.29
		c0.09,9.01,1.67,17.78,6.25,25.7c1.5,2.6,3.74,4.77,5.64,7.14C55.41,196.55,69.72,152.56,102.91,114.47z"/>
	<path class="st0" d="M206,228.38c0.01-12.08,9.94-21.94,22.03-21.87c12.05,0.07,21.89,10.09,21.76,22.16
		c-0.13,11.84-9.95,21.59-21.8,21.64C215.92,250.35,206,240.46,206,228.38z M227.96,235.68c3.83-0.04,7.11-3.27,7.2-7.1
		c0.1-4.02-3.31-7.48-7.34-7.44c-3.85,0.04-7.09,3.24-7.19,7.09C220.53,232.26,223.93,235.72,227.96,235.68z"/>
</g>
</svg>
