<?xml version="1.0" encoding="utf-8"?>
<!-- Generator: Adobe Illustrator 24.0.0, SVG Export Plug-In . SVG Version: 6.00 Build 0)  -->
<svg version="1.1" id="Capa_1" xmlns="http://www.w3.org/2000/svg" xmlns:xlink="http://www.w3.org/1999/xlink" x="0px" y="0px"
	 viewBox="0 0 500 500" style="enable-background:new 0 0 500 500;" xml:space="preserve">
<style type="text/css">
	.st0{fill:#FFFFFF;}
</style>
<g>
	<path class="st0" d="M0.5,499.48c0-14.42,0-28.85,0-43.82c5.62,0,10.89,0,16.37,0c-2.44-14.24,1.76-25.78,11.29-35.66
		c5.41-5.61,10.5-11.53,15.9-17.15c4.31-4.48,6.4-9.66,6.04-15.86c-0.15-2.59-0.34-5.19-0.3-7.78c0.19-11.14-2.74-20.23-10.98-29
		c-11.36-12.1-15.66-27.7-7.86-43.68c3.28-6.73,8.7-13.18,14.7-17.69c22.46-16.85,45.45-32.99,68.46-49.09
		c11.72-8.2,24.91-11.72,39.25-9.37c4.09,0.67,6.17-0.3,8.2-4.25c9.35-18.22,33.86-27.56,53.12-20.54
		c11.67,4.25,17.89,13.55,21.68,24.72c1.21,3.58,3.01,6.04,6.29,8.03c8.88,5.37,12.38,13.53,10.46,23.68
		c-0.96,5.07-2.41,10.1-4.21,14.93c-4.51,12.09-14.55,16.74-26.34,18.8c-2.39,0.42-4.78,0.77-7.71,1.23
		c0.27,3.41,0.82,6.76,0.74,10.09c-0.39,15.56-0.82,31.12-1.58,46.67c-0.18,3.74,0.29,6.83,2.27,10.07
		c8.82,14.44,16.48,29.43,20.37,46.08c3.3,14.13,2.66,28.01-2.52,41.63c-0.45,1.18-0.84,2.38-1.37,3.89c14.88,0,29.4,0,44.87,0
		c-4.48-6.04-8.6-11.55-12.66-17.1c-2.59-3.53-5.36-6.97-7.59-10.72c-5.1-8.63-4.2-17.86,4.1-23.37
		c12.56-8.33,20.51-19.99,27.93-32.49c5.38-9.06,12.82-16.28,21.95-21.71c1.44-0.86,3-2.19,3.61-3.66
		c7.78-18.76,11.06-38.51,13.07-58.74c-11.69-3.45-17.25-11.8-20.11-22.67c-6.03-22.89-12.2-45.74-18.38-68.59
		c-2.43-9-2.44-17.95-0.02-26.93c2.99-11.11,5.96-22.22,9.14-34.06c4.73,1.29,9.15,2.49,14.11,3.85c-2.16,7.95-3.8,15.71-6.4,23.14
		c-4.77,13.57-4.43,26.73-0.18,40.49c5.93,19.2,10.54,38.8,15.97,58.15c0.98,3.48,2.69,7.03,5.01,9.74
		c1.34,1.57,5.02,2.67,6.82,1.94c2.04-0.83,4.43-3.95,4.43-6.07c-0.01-5.27-0.99-10.61-2.12-15.8c-4.32-19.8-8.89-39.55-13.28-59.34
		c-0.37-1.65-0.53-3.59-0.04-5.15c4.92-15.45,10-30.84,15.06-46.25c0.14-0.44,0.52-0.8,1.1-1.65c4.27,1.39,8.65,2.82,13.39,4.37
		c-4.62,14.06-9.25,27.68-13.5,41.43c-0.9,2.92-1.1,6.41-0.47,9.39c4.47,20.93,9.24,41.8,13.9,62.69
		c2.04,9.16,1.14,17.76-5.34,25.53c5.91,6.34,11.75,12.62,17.61,18.89c10.54,11.26,21.04,22.57,31.7,33.72
		c2.02,2.11,2.6,3.98,1.97,6.87c-3.99,18.27-2.16,35.57,7.49,52.12c8.16,14,10.89,29.76,11.64,45.81
		c0.24,5.18,0.04,10.37,0.04,15.98c17.01,0,33.63,0,50.6,0c0.51-4.19-1.82-6.91-5.46-8.3c-7.41-2.83-14.92-5.44-22.5-7.78
		c-3.34-1.03-4.85-2.42-5.32-6.18c-3.97-31.72-7.75-63.48-12.72-95.05c-1.53-9.73-5.74-19.3-10.14-28.25
		c-10.09-20.51-21.16-40.54-31.57-60.89c-1.63-3.18-2.81-7.07-2.69-10.58c0.82-25.78,1.78-51.56,3.23-77.31
		c0.61-10.92-1.22-20.85-6.85-30.28c-4.39-7.37-8.3-15.05-12.12-22.74c-0.92-1.86-1.17-4.4-0.82-6.47
		c1.02-6.07,2.63-12.04,3.74-18.1c0.51-2.78,1.84-3.33,4.38-3c6.12,0.79,12.24,1.52,18.39,2.02c7.07,0.57,10.36-1.66,12.24-8.31
		c2.38-8.43,4.73-16.87,6.73-25.39c3-12.81-4.42-25.77-17.53-31.19c-13.01-5.38-27.8-0.89-35.56,11.01
		c-5.87,9.02-7.21,18.88-2.99,28.79c1.85,4.35,1.49,8.15,1.13,12.55c-0.81,10.04-5.21,16.82-14.7,20.44
		c-10,3.81-15.23,11.35-16.83,21.85c-0.65,4.27-2.24,8.4-3.52,13.01c-4.78-1.32-9.24-2.56-14.11-3.9c2.56-8.93,4.34-17.73,7.7-25.88
		c1.86-4.51,6.01-8.29,9.76-11.72c2.93-2.69,6.82-4.34,10.3-6.42c6.75-4.02,8.48-8.71,5.91-16.11c-8.28-23.85,4.17-50.01,27.69-58.2
		c22.18-7.73,47.93,4.77,55.86,27.08c2.52,7.09,2.98,14.28,1.18,21.55c-2.09,8.5-4.3,16.98-6.62,25.42
		c-4.1,14.92-14.03,21.59-29.43,19.92c-2.4-0.26-4.8-0.56-7.17-0.84c-2.37,4.31-2.08,8.16,0.28,12.1
		c3.09,5.14,5.84,10.49,8.93,15.63c5.82,9.69,8.79,20.11,8.94,31.44c0.03,2.16,1.22,4.67,2.64,6.39
		c13.48,16.25,27.11,32.37,40.73,48.49c5.23,6.19,9.49,12.77,9.7,21.24c0.4,15.87-13.82,26.08-28.48,19.91
		c-4.62-1.94-8.6-5.63-12.55-8.91c-5.56-4.62-10.82-9.61-16.84-15c1.09,5.7,1.04,11.93,3.48,16.96c6.78,14,14.42,27.6,22.05,41.17
		c14.2,25.3,22.22,52.29,24.52,81.27c1.48,18.58,4.62,37.03,6.9,55.55c0.38,3.13,1.48,4.96,4.81,5.58c2.84,0.53,5.55,1.78,8.33,2.66
		c12.17,3.87,21.28,10.53,22.07,25.19c5.62,0,10.91,0,16.2,0c0,14.62,0,29.24,0,43.86c-12.35,0-24.69,0-37.04,0
		c0.28-4.79,0.56-9.58,0.86-14.73c7.25,0,14.19,0,21.25,0c0-4.99,0-9.59,0-14.16c-156.61,0-312.91,0-469.21,0c0,4.84,0,9.32,0,14.36
		c134.6,0,268.96,0,403.42,0c0.29,5.21,0.55,9.87,0.8,14.53C279.89,499.48,140.19,499.48,0.5,499.48z M199.48,283.33
		c6.13-0.58,13.1-0.88,19.94-1.96c13.16-2.07,20.17-10.63,19.53-23.96c-0.11-2.31-2.06-5.86-3.97-6.54
		c-8.1-2.84-11.08-9-12.74-16.55c-0.45-2.01-1.56-3.91-2.54-5.77c-4.19-7.99-11.03-10.93-19.78-10.43
		c-15.58,0.88-25.33,9.07-29.42,23.86c-1.3,4.71-3.43,5.8-7.9,4.56c-17.91-4.97-33.52-0.82-48.28,10.57
		C96.1,271.18,76.92,284,58.21,297.46c-3.28,2.36-6.49,4.92-9.27,7.83c-7.23,7.56-8.7,16.39-4.85,26.09
		c3.21,8.08,8.64,14.5,15.55,19.57c12.3,9.02,24.83,17.72,37.16,26.7c7.08,5.16,14.06,10.46,20.88,15.95
		c6.32,5.09,9.13,11.65,7.09,19.86c-0.31,1.25-0.34,2.57-0.52,3.86c-1.75,11.98-2.06,24.33-8.99,35c-0.53,0.81-0.49,1.98-0.79,3.31
		c10.86,0,21.24,0.06,31.62-0.03c4.18-0.04,6.88-4.08,4.63-7.78c-1.82-3-4.78-5.74-7.88-7.4c-3.1-1.66-4.1-3.21-3.72-6.66
		c1.21-10.97,2.03-21.98,3.09-32.96c0.45-4.6-0.69-8.42-3.74-12.09c-11.03-13.21-21.8-26.62-32.66-39.97
		c-1.16-1.42-2.22-2.91-3.53-4.64c21.67-10.01,42.65-19.71,64.42-29.76c0.86,9.17,1.89,17.5,2.38,25.87
		c0.8,13.59,4.12,26.16,12.64,37.15c4.17,5.38,7.81,11.17,11.54,16.87c8.23,12.57,13.77,26.03,13.95,41.37
		c0.04,3.54-0.55,5.88-4.09,7.72c-5.38,2.81-6.47,6.25-5.01,12.32c5.09,0,10.28,0.18,15.44-0.12c1.39-0.08,3.29-1.31,3.96-2.55
		c6.2-11.54,8.25-23.81,5.65-36.73c-3.73-18.47-12.98-34.46-22.52-50.35c-1.34-2.24-1.8-5.4-1.65-8.08
		c0.52-8.74,2.21-17.45,2.17-26.16C201.08,315.6,200.1,299.59,199.48,283.33z M319.63,455.3c28.15,0,55.67,0,83.38,0
		c0.84-20.2-1.12-39.61-11.03-57.32c-8.74-15.62-12.26-32.14-9.2-49.69c1.06-6.11-1.33-9.38-5.87-12.58
		c-5.67,13.21-11.22,26.33-17,39.36c-1.01,2.28-2.67,4.47-4.53,6.15c-14.6,13.15-29.31,26.18-44.03,39.19
		c-1.19,1.05-2.74,1.7-3.85,2.37C313.91,433.72,323.1,442,319.63,455.3z M342.39,298.2c-0.45,0.57-0.75,0.77-0.79,1.01
		c-0.33,1.92-0.62,3.85-0.92,5.77c-2.68,17.18-6.08,34.18-13.66,50.01c-0.94,1.96-2.24,4.32-4.02,5.2
		c-11.58,5.74-19.34,15.04-25.45,26.05c-6.16,11.09-13.89,20.76-24.91,27.45c-3.66,2.22-4.26,4.74-1.53,8.35
		c7.84,10.35,15.58,20.78,23.13,31.34c2.38,3.33,5.64,2.54,8.3,1.9c1.39-0.33,2.93-3.52,2.91-5.4c-0.02-2.39-1.2-4.97-2.49-7.11
		c-4.43-7.33-9.12-14.5-13.88-22.01c1.94-1.75,3.59-3.26,5.27-4.76c16.26-14.46,32.55-28.88,48.75-43.41
		c1.75-1.57,3.43-3.54,4.37-5.66c5.96-13.5,11.73-27.07,17.44-40.67c0.47-1.12,0.63-3.11-0.03-3.84
		C357.52,314.28,349.96,306.29,342.39,298.2z M182.64,455.41c-0.61-8.82,2.17-15.74,8.26-21.48c0.99-0.93,1.49-3.38,1.02-4.72
		c-2.82-8.05-5.22-16.39-9.22-23.85c-4.58-8.54-10.67-16.27-16.13-24.33c-5.25-7.78-8.82-16.24-10.24-25.53
		c-0.94-6.17-1.62-12.38-2.49-19.14c-9.65,4.46-18.85,8.72-28.49,13.18c8.52,10.46,16.55,20.63,24.92,30.51
		c5.29,6.24,7.25,13.24,6.53,21.21c-0.74,8.25-1.64,16.48-2.09,24.75c-0.1,1.9,0.81,4.47,2.18,5.74c6.92,6.42,10.48,13.9,8.66,23.67
		C171.16,455.41,176.62,455.41,182.64,455.41z M52.16,437.52c8.91-8.29,17.63-16.27,26.17-24.44c2.15-2.06,5.01-4.52,5.35-7.09
		c0.83-6.22,0.38-12.6,0.39-18.92c0-0.37-0.5-0.84-0.87-1.1c-6.18-4.36-12.37-8.69-19.33-13.56c0.26,3.03,0.38,4.95,0.6,6.86
		c1.64,14.2-1.6,26.58-12.5,36.66c-5.58,5.16-10.47,11.08-15.47,16.85c-5.74,6.63-7.12,14.21-4.36,22.85c10.3,0,20.35,0.01,30.39,0
		c5.31-0.01,7.29-3.1,4.47-7.7c-1.45-2.36-3.87-4.29-6.21-5.9C58.3,440.28,55.38,439.16,52.16,437.52z M99.9,397.8
		c-0.47,0.04-0.94,0.07-1.41,0.11c3.86,19.3-12.34,26.4-21.08,36.09c2.43,7.69,4.52,14.28,6.77,21.4c4,0,9.13,0,14.07,0
		c2.08-4.81,4.16-9.51,6.13-14.26c1.11-2.67,2.44-5.36,2.92-8.16c1.28-7.5,2.3-15.05,3.08-22.61c0.17-1.65-0.6-3.88-1.75-5.07
		C105.98,402.54,102.84,400.27,99.9,397.8z M394.19,179.03c-0.68,8.79-1.37,16.16-1.73,23.56c-0.07,1.35,0.88,3.06,1.87,4.11
		c8.43,8.98,16.91,17.92,25.53,26.71c1.77,1.8,4.01,3.39,6.33,4.33c4.55,1.84,8.56-0.86,8.03-5.68c-0.35-3.21-1.56-6.8-3.56-9.26
		C419.05,208.48,407.08,194.42,394.19,179.03z"/>
	<path class="st0" d="M433.23,499.48c0.27-4.77,0.54-9.54,0.82-14.46c4.73,0,9.21,0,13.94,0c0.28,4.92,0.55,9.69,0.82,14.46
		C443.62,499.48,438.42,499.48,433.23,499.48z"/>
	<path class="st0" d="M113.12,294.12c-4.1,2.93-7.85,5.62-11.86,8.5c-2.87-4.04-5.56-7.81-8.47-11.9c4.04-2.88,7.79-5.55,11.85-8.44
		C107.5,286.28,110.19,290.03,113.12,294.12z"/>
	<path class="st0" d="M136.99,277.11c-4.09,2.9-7.74,5.5-11.86,8.42c-2.85-3.92-5.56-7.63-8.57-11.77c3.91-2.8,7.65-5.47,11.83-8.47
		C131.22,269.18,133.93,272.9,136.99,277.11z"/>
</g>
</svg>
